<svg width="42" height="42" viewBox="0 0 42 42" fill="none" xmlns="http://www.w3.org/2000/svg">
<path d="M36.5396 10.0801H10.4996C8.65161 10.0801 7.13961 11.5921 7.13961 13.4401V14.7001C7.13961 15.1621 7.51761 15.5401 7.97961 15.5401C8.44161 15.5401 8.81961 15.1621 8.81961 14.7001V13.4401C8.81961 13.2721 8.86161 13.1041 8.90361 12.9361L18.3116 21.0001L8.90361 29.0641C8.86161 28.8961 8.81961 28.7281 8.81961 28.5601V27.3001C8.81961 26.8381 8.44161 26.4601 7.97961 26.4601C7.51761 26.4601 7.13961 26.8381 7.13961 27.3001V28.5601C7.13961 30.4081 8.65161 31.9201 10.4996 31.9201H36.5396C38.3876 31.9201 39.8996 30.4081 39.8996 28.5601V13.4401C39.8996 11.5921 38.3876 10.0801 36.5396 10.0801ZM10.1636 11.8021C10.2476 11.7601 10.3736 11.7601 10.4996 11.7601H36.5396C36.6656 11.7601 36.7916 11.7601 36.8756 11.8021L24.0656 22.7641C23.7296 23.0161 23.3096 23.0161 22.9736 22.7641L10.1636 11.8021ZM36.5396 30.2401H10.4996C10.3736 30.2401 10.2476 30.2401 10.1636 30.1981L19.6136 22.0921L21.8816 24.0661C22.3436 24.4861 22.9316 24.6961 23.5196 24.6961C24.1076 24.6961 24.6956 24.4861 25.1576 24.0661L27.4256 22.0921L36.8756 30.1981C36.7916 30.2401 36.6656 30.2401 36.5396 30.2401ZM38.2196 28.5601C38.2196 28.7281 38.1776 28.8961 38.1356 29.0641L28.7276 21.0001L38.1356 12.9361C38.1776 13.1041 38.2196 13.2721 38.2196 13.4401V28.5601ZM4.61961 18.9001C4.61961 18.4381 4.99761 18.0601 5.45961 18.0601H10.4996C10.9616 18.0601 11.3396 18.4381 11.3396 18.9001C11.3396 19.3621 10.9616 19.7401 10.4996 19.7401H5.45961C4.99761 19.7401 4.61961 19.3621 4.61961 18.9001ZM10.4996 23.9401H2.93961C2.47761 23.9401 2.09961 23.5621 2.09961 23.1001C2.09961 22.6381 2.47761 22.2601 2.93961 22.2601H10.4996C10.9616 22.2601 11.3396 22.6381 11.3396 23.1001C11.3396 23.5621 10.9616 23.9401 10.4996 23.9401Z" fill="white"/>
</svg>
