<svg width="33" height="33" viewBox="0 0 33 33" fill="none" xmlns="http://www.w3.org/2000/svg">
<g clip-path="url(#clip0_84_217)">
<path d="M18.7842 0C18.4282 0 18.1396 0.288528 18.1396 0.64453C18.1396 1.00053 18.4282 1.28906 18.7842 1.28906C25.912 1.28906 31.7108 7.08807 31.7108 14.2157C31.7108 14.5717 31.9996 14.8602 32.3553 14.8602C32.7113 14.8602 32.9998 14.5717 32.9998 14.2157C32.9998 6.37733 26.6228 0 18.7842 0Z" fill="white"/>
<path d="M28.4781 14.8602C28.8341 14.8602 29.1226 14.5714 29.1226 14.2156C29.1226 8.5148 24.4847 3.87695 18.7842 3.87695C18.4282 3.87695 18.1396 4.16573 18.1396 4.52148C18.1396 4.87749 18.4282 5.16601 18.7842 5.16601C23.774 5.16601 27.8335 9.22555 27.8335 14.2156C27.8335 14.5714 28.1221 14.8602 28.4781 14.8602Z" fill="white"/>
<path d="M23.9555 14.2163C23.9555 14.572 24.2441 14.8608 24.6001 14.8608C24.9561 14.8608 25.2446 14.572 25.2446 14.2163C25.2446 10.654 22.3465 7.75586 18.7842 7.75586C18.4282 7.75586 18.1396 8.04439 18.1396 8.40014C18.1396 8.75614 18.4282 9.04467 18.7842 9.04467C21.6357 9.04467 23.9555 11.3645 23.9555 14.2163Z" fill="white"/>
<path d="M18.1396 12.2773C18.1396 12.6331 18.4282 12.9216 18.7842 12.9216C19.4977 12.9216 20.0783 13.5022 20.0783 14.216C20.0783 14.5717 20.3668 14.8605 20.7228 14.8605C21.0786 14.8605 21.3673 14.5717 21.3673 14.216C21.3673 12.7915 20.2084 11.6328 18.7842 11.6328C18.4282 11.6328 18.1396 11.9213 18.1396 12.2773Z" fill="white"/>
<path d="M12.0811 20.9258C12.0811 21.2818 11.7925 21.5703 11.4365 21.5703C11.0805 21.5703 10.792 21.2818 10.792 20.9258C10.792 20.57 11.0805 20.2812 11.4365 20.2812C11.7925 20.2812 12.0811 20.57 12.0811 20.9258Z" fill="white"/>
<path d="M17.6622 32.2174C20.5971 33.6558 24.1279 33.0573 26.4487 30.7365L27.7813 29.4039C28.5049 28.6811 28.5052 27.5101 27.7816 26.7868L22.6324 21.6381C21.9101 20.9147 20.7388 20.9137 20.0158 21.6378L17.8279 23.826C17.3994 24.2545 16.738 24.3418 16.2556 24.0339C15.4691 23.5311 14.7039 22.9767 13.9816 22.3861C13.7059 22.1608 13.3001 22.2015 13.0747 22.477C12.8494 22.7527 12.8902 23.1588 13.1656 23.3839C13.9267 24.0062 14.7326 24.5903 15.5617 25.1201C16.5499 25.7512 17.8863 25.5904 18.7393 24.7374L20.9277 22.549C21.1465 22.3299 21.5009 22.3294 21.7207 22.5492L26.8702 27.6982C27.0895 27.9177 27.09 28.2727 26.8702 28.492L25.5373 29.8251C23.604 31.7585 20.6673 32.2547 18.2295 31.0601C9.29843 26.6805 4.43927 19.7362 1.93568 14.6817C0.738008 12.2644 1.23525 9.33888 3.17312 7.40151L4.47679 6.0981C4.69532 5.87906 5.05007 5.8783 5.26961 6.09835L10.4196 11.248C10.6376 11.4658 10.6399 11.8208 10.4191 12.0411L8.23118 14.2293C7.37818 15.0822 7.2173 16.4186 7.84849 17.4071C8.22035 17.9889 8.62117 18.563 9.04011 19.1131C9.25563 19.3963 9.65997 19.451 9.94321 19.2354C10.2265 19.0199 10.2813 18.6156 10.0656 18.3321C9.66828 17.8102 9.2876 17.2653 8.93462 16.7132C8.62671 16.2306 8.71407 15.5692 9.14258 15.1407L11.3302 12.953C12.0535 12.2307 12.0543 11.0592 11.3307 10.3364L6.18127 5.1872C5.45919 4.46386 4.28771 4.46286 3.56488 5.18695L2.26172 6.49011C-0.0676545 8.81872 -0.662838 12.3407 0.780558 15.254C3.37303 20.4875 8.4059 27.6785 17.6622 32.2174Z" fill="white"/>
</g>
<defs>
<clipPath id="clip0_84_217">
<rect width="33" height="33" fill="white"/>
</clipPath>
</defs>
</svg>
