<svg width="40" height="40" viewBox="0 0 40 40" fill="none" xmlns="http://www.w3.org/2000/svg">
<path d="M20.0766 3.12502C19.6446 3.1219 19.2922 3.46955 19.2891 3.9008C19.286 4.33205 19.6328 4.6844 20.0649 4.68752C20.4961 4.69065 20.8485 4.34377 20.8516 3.91252C20.8547 3.48127 20.5078 3.12893 20.0766 3.12502Z" fill="white"/>
<path d="M20.0411 7.81288C17.0246 7.79148 14.5542 10.225 14.5314 13.2406C14.5087 16.2559 16.9435 18.7275 19.9591 18.7503C19.9731 18.7503 19.987 18.7504 20.0009 18.7504C22.9973 18.7504 25.4461 16.3242 25.4688 13.3226C25.4915 10.3073 23.0567 7.83562 20.0411 7.81288ZM20.0008 17.188C19.9909 17.188 19.9806 17.1879 19.9708 17.1878C17.8168 17.1716 16.0776 15.4061 16.0938 13.2523C16.11 11.1081 17.8591 9.37515 19.9994 9.37515C20.0092 9.37515 20.0195 9.37523 20.0294 9.37531C22.1834 9.39156 23.9226 11.157 23.9063 13.3109C23.8901 15.455 22.1411 17.188 20.0008 17.188Z" fill="white"/>
<path d="M23.4087 3.717C23.0023 3.57279 22.5555 3.78568 22.4113 4.1924C22.2672 4.59912 22.4801 5.0456 22.8867 5.18982C26.3279 6.40943 28.6212 9.68686 28.5937 13.3452C28.5905 13.7766 28.9376 14.1291 29.3691 14.1323C29.3711 14.1323 29.3731 14.1323 29.3751 14.1323C29.8037 14.1323 30.153 13.7864 30.1562 13.3569C30.1887 9.03295 27.4771 5.15896 23.4087 3.717Z" fill="white"/>
<path d="M24.7938 29.4096C29.9902 22.7209 33.2376 19.233 33.2814 13.3811C33.3364 6.01837 27.3613 0 19.9991 0C12.7228 0 6.77451 5.89282 6.7192 13.1819C6.67451 19.1925 9.98225 22.6756 15.2144 29.4085C10.0094 30.1863 6.7192 32.1408 6.7192 34.5313C6.7192 36.1327 8.19936 37.5696 10.8871 38.5774C13.3334 39.4948 16.5699 40 20.0003 40C23.4307 40 26.6672 39.4948 29.1135 38.5774C31.8013 37.5695 33.2814 36.1326 33.2814 34.5312C33.2814 32.142 29.9943 30.188 24.7938 29.4096ZM8.28162 13.1937C8.33037 6.76173 13.5784 1.5625 19.9992 1.5625C26.496 1.5625 31.7675 6.87408 31.719 13.3695C31.6775 18.9268 28.2335 22.3516 22.7353 29.519C21.7546 30.7969 20.854 32.005 20.0015 33.1868C19.1515 32.0043 18.2688 30.8178 17.2734 29.5186C11.548 22.0511 8.23928 18.8851 8.28162 13.1937ZM20.0003 38.4376C13.2932 38.4376 8.28162 36.3753 8.28162 34.5313C8.28162 33.1638 11.2776 31.4363 16.3149 30.8381C17.4284 32.2991 18.4047 33.6265 19.3622 34.9821C19.5084 35.1891 19.7461 35.3124 19.9996 35.3126C19.9998 35.3126 20.0001 35.3126 20.0003 35.3126C20.2536 35.3126 20.4912 35.1898 20.6377 34.9831C21.5861 33.6451 22.5891 32.2851 23.6931 30.839C28.7257 31.4378 31.719 33.1648 31.719 34.5314C31.7189 36.3753 26.7074 38.4376 20.0003 38.4376Z" fill="white"/>
</svg>
